PathFileType	4	(X/Y/Z)	/Users/niels/Desktop/University/Third Semester/Perception and Action/Exam/Gymnastics Motion Tracking/Code for Gym Tracking/Analyzed Data/Backflip/backflip_good_idn_4_Sports2D/backflip_good_idn_4_Sports2D_px_person00.trc
DataRate	CameraRate	NumFrames	NumMarkers	Units	OrigDataRate	OrigDataStartFrame	OrigNumFrames
60.11730205278593	60.11730205278593	11	22	m	60.11730205278593	103	206
Frame#	Time	Hip			RHip			RKnee			RAnkle			RBigToe			RSmallToe			RHeel			LHip			LKnee			LAnkle			LBigToe			LSmallToe			LHeel			Neck			Head			Nose			RShoulder			RElbow			RWrist			LShoulder			LElbow			LWrist		
		X1	Y1	Z1	X2	Y2	Z2	X3	Y3	Z3	X4	Y4	Z4	X5	Y5	Z5	X6	Y6	Z6	X7	Y7	Z7	X8	Y8	Z8	X9	Y9	Z9	X10	Y10	Z10	X11	Y11	Z11	X12	Y12	Z12	X13	Y13	Z13	X14	Y14	Z14	X15	Y15	Z15	X16	Y16	Z16	X17	Y17	Z17	X18	Y18	Z18	X19	Y19	Z19	X20	Y20	Z20	X21	Y21	Z21	X22	Y22	Z22
103	1.7133170731707315	1.0566833856850448	-0.5129895061487125	0.0	1.0498947794367828	-0.5093047086344134	0.0	1.0971510990893936	-0.5999416299957918	0.0	1.0777712381585542	-0.6935146434681627	0.0	1.1121734926031548	-0.7053510326520437	0.0	1.103733744389302	-0.7073096768762888	0.0	1.0685873676035054	-0.7023140941784198	0.0	1.0679277455811305	-0.5125760931886546	0.0	1.1121096789005436	-0.5958755937888381	0.0	1.0889166131382981	-0.6895573241992436	0.0	1.124469692888761	-0.6951625472019507	0.0	1.1152599641817496	-0.691484290839456	0.0	1.0770045340844576	-0.6994314301100871	0.0	1.144135800941499	-0.4234208446572675	0.0	1.2054437646358915	-0.3907249496430816	0.0	1.195429315239954	-0.4156654434628184	0.0	1.1300802763514362	-0.42000388888204593	0.0	1.0715859365006921	-0.39631574535815434	0.0	1.0242581464586478	-0.3629255324577511	0.0	1.136368759252251	-0.4275620784636617	0.0	1.0738523222621084	-0.4190027001680237	0.0	1.0330671536661429	-0.40789139457400597	0.0
104	1.7299512195121949	1.0545188168552926	-0.5136309794921824	0.0	1.04780040758744	-0.5099943754866468	0.0	1.0987596149170327	-0.5983828520716182	0.0	1.0781366848688692	-0.6915902204880752	0.0	1.1120728234113475	-0.703569785541667	0.0	1.1036983511673164	-0.7056311453906653	0.0	1.0688383214038173	-0.7006466248726758	0.0	1.066057415970983	-0.5131977945784819	0.0	1.1132265105192773	-0.5939649629041722	0.0	1.0892985845177148	-0.6873428397336476	0.0	1.1250327744165187	-0.6933482127889684	0.0	1.1159594758488438	-0.6897627402079813	0.0	1.0766662693206313	-0.6975034481791	0.0	1.1446892434169016	-0.426101882431839	0.0	1.2060759212706922	-0.39383928207712127	0.0	1.195988521844688	-0.41837980911456635	0.0	1.1306464725983558	-0.4234827836242395	0.0	1.0709755742492226	-0.4011144620387143	0.0	1.0223020014936275	-0.37003084358422705	0.0	1.1366556312094975	-0.4304110185727399	0.0	1.0730816498221154	-0.42229456147318534	0.0	1.0311504929757058	-0.4125602238223379	0.0
105	1.7465853658536583	1.0526296798122958	-0.5148375745874486	0.0	1.046029183807136	-0.5112707364650293	0.0	1.1004053145817267	-0.5972613436071901	0.0	1.0785381868040427	-0.690078526944689	0.0	1.1119105550065906	-0.7021854084533218	0.0	1.10362138392779	-0.7043789815460815	0.0	1.0691443898653215	-0.6994134275583865	0.0	1.0643908487471754	-0.514320361581262	0.0	1.114253521376343	-0.5925521774075617	0.0	1.0895776407291076	-0.685543653035155	0.0	1.1253442901679194	-0.6922097681144522	0.0	1.1164718703980299	-0.6887330809797089	0.0	1.0763497794084034	-0.6959628593448066	0.0	1.1451046899755635	-0.42893365625487345	0.0	1.2063150269385094	-0.3968403213864739	0.0	1.1962478007455526	-0.4211109343389201	0.0	1.1310711947738232	-0.4273221843201583	0.0	1.070426143703012	-0.40746597312467364	0.0	1.0204665210546007	-0.38006917603999246	0.0	1.1368041968006357	-0.4335368468076649	0.0	1.0724613693150582	-0.4267606570386619	0.0	1.0294809920238899	-0.4194128072525405	0.0
106	1.7632195121951217	1.0510182240588377	-0.5166011952879909	0.0	1.0445790638567405	-0.5131273862859812	0.0	1.1020636757510327	-0.5966467063434997	0.0	1.0789523227243962	-0.6890465344187682	0.0	1.1117210379858669	-0.7012724955285855	0.0	1.103532716769102	-0.7036259605400312	0.0	1.0694862952576136	-0.6986611036332906	0.0	1.062923291476512	-0.5159442145614298	0.0	1.1151924903279273	-0.5917299353669527	0.0	1.0897221243118302	-0.6842547413012361	0.0	1.1254023727667097	-0.6918169254293377	0.0	1.1167762619440351	-0.6884593933370212	0.0	1.0760572117653908	-0.6948745835497939	0.0	1.1453531737778804	-0.43188089902767474	0.0	1.206139772703721	-0.3996653591760374	0.0	1.196173271173802	-0.42381393887104035	0.0	1.1313068850065529	-0.431464367179565	0.0	1.070003677144374	-0.4153675164235469	0.0	1.0190600866472437	-0.3930199997247202	0.0	1.1368180972213238	-0.4369201243593715	0.0	1.0720892472603452	-0.4324155125964725	0.0	1.0283249227108993	-0.4284514087631003	0.0
107	1.7798536585365852	1.0496848227626845	-0.518912151645625	0.0	1.0434407635015732	-0.515560019693521	0.0	1.1037151316231788	-0.5966166253010321	0.0	1.079352927587645	-0.6885557262536761	0.0	1.11153139669307	-0.7009081913185748	0.0	1.1034516798446834	-0.7034495196795351	0.0	1.0698421480753584	-0.6984266189587538	0.0	1.0616516526231536	-0.5180735149616927	0.0	1.1160470979046395	-0.5915900371659574	0.0	1.0897019277018014	-0.6835636538218762	0.0	1.1252205544101002	-0.6922165401031293	0.0	1.1168690894554774	-0.6889818891058804	0.0	1.075767626003228	-0.6942970338877915	0.0	1.1453974367090394	-0.43490602357993324	0.0	1.2055082783013766	-0.4022552252508762	0.0	1.1957328731941677	-0.4264433622171228	0.0	1.131299433022837	-0.43584901938227383	0.0	1.069798163289278	-0.42476192748538355	0.0	1.0184421619921074	-0.40874004056791	0.0	1.1366862411248082	-0.4405292384411541	0.0	1.0720764947056758	-0.43925583285609454	0.0	1.0279875991899672	-0.4396068294972112	0.0
108	1.7964878048780486	1.048627283451188	-0.5217605318601298	0.0	1.0425997365528934	-0.5185667433485661	0.0	1.1053478986534364	-0.5972493762923261	0.0	1.079717696055053	-0.6886641180009253	0.0	1.111356833474629	-0.7011751554915745	0.0	1.103379868463787	-0.7039315970571808	0.0	1.0701919593592906	-0.6987403271415504	0.0	1.0605750641780267	-0.5207181894571866	0.0	1.1168254550654406	-0.5922162748549341	0.0	1.0895025081934413	-0.6835445795224914	0.0	1.124843194029992	-0.6934223461152672	0.0	1.1167822246824393	-0.6903117472796869	0.0	1.0754437127367584	-0.6942809977569624	0.0	1.145189408781645	-0.4379735414638278	0.0	1.2043606228948354	-0.4045651794279165	0.0	1.1948979469093446	-0.42896012005292766	0.0	1.130997724727392	-0.4404164232732274	0.0	1.0699315848813475	-0.43551951505440145	0.0	1.01899365293992	-0.4269254007475979	0.0	1.1363706850578021	-0.44431325054390486	0.0	1.0725384296468141	-0.4472507444057098	0.0	1.0287888036823343	-0.45272510496753804	0.0
109	1.8131219512195118	1.0478377026623138	-0.5251368147989632	0.0	1.0420354691968927	-0.5221462485504943	0.0	1.1069559359529348	-0.5986211846502083	0.0	1.0800325694692448	-0.6894338808933647	0.0	1.111201625527696	-0.702169692486063	0.0	1.1032990641839997	-0.7051619069264456	0.0	1.0705195628898985	-0.6996344034507802	0.0	1.0596889854564064	-0.523893106728362	0.0	1.1175385285955706	-0.5936847579288991	0.0	1.0891350680135539	-0.6842645920896754	0.0	1.1243505021830373	-0.6954210750960309	0.0	1.1165857559800496	-0.6924392093169547	0.0	1.0750508736185382	-0.6948768823546629	0.0	1.1446696587945642	-0.4410528408397801	0.0	1.202631304328389	-0.40657019418879414	0.0	1.1936402321101243	-0.43133721096985594	0.0	1.1303680504339884	-0.44510925657108313	0.0	1.0705653835451026	-0.44742760079053456	0.0	1.0210822292357775	-0.4470702937201453	0.0	1.1358065082972115	-0.4482015908079151	0.0	1.0735820951512625	-0.45631837598740094	0.0	1.0310288291415663	-0.46754121165711454	0.0
110	1.8297560975609752	1.04729980573295	-0.529032240372027	0.0	1.041722176263176	-0.5262953500783117	0.0	1.1085321465538913	-0.6008073200963713	0.0	1.0802931516482546	-0.6909355867016624	0.0	1.1110637011181113	-0.7040057670256273	0.0	1.103175967195141	-0.7072379370987115	0.0	1.070812615673141	-0.7011456699597184	0.0	1.0589767065170812	-0.5276143511361936	0.0	1.1181942609821032	-0.5960675629765364	0.0	1.0886342079080393	-0.6857947769549233	0.0	1.1238377744506283	-0.6981899154361492	0.0	1.1163689906676506	-0.6953448254493478	0.0	1.0745737026121989	-0.6961398832131596	0.0	1.1437726837698796	-0.4441205195339384	0.0	1.2002645980830005	-0.4082682950061369	0.0	1.191929142783675	-0.43356594662232506	0.0	1.1294011956060628	-0.4498720804541612	0.0	1.0718892163372256	-0.46018260776541897	0.0	1.0250235474253562	-0.46844645832391674	0.0	1.134916661016394	-0.4521147969013444	0.0	1.0752992347236747	-0.4662887123006836	0.0	1.034953118184729	-0.4836263055027226	0.0
111	1.8463902439024387	1.0469906608547865	-0.5334369820469896	0.0	1.0416305175019807	-0.5310039588013165	0.0	1.110060793179238	-0.6038781094724739	0.0	1.0805049239956348	-0.6932415315004541	0.0	1.1109418491959369	-0.7068031098432375	0.0	1.1029724234347167	-0.7102538502209675	0.0	1.071063840411418	-0.703306885482672	0.0	1.058407966763916	-0.53189301271508	0.0	1.1187919444552865	-0.5994283842878523	0.0	1.0880488759676896	-0.6882108365861833	0.0	1.1233863958555448	-0.7017009391280946	0.0	1.1162147272099285	-0.6989967298199449	0.0	1.0740172704172242	-0.6981240887092742	0.0	1.1424357189208192	-0.4471619430127244	0.0	1.197227448930203	-0.4096871996342516	0.0	1.1897342071339858	-0.4356631573035656	0.0	1.1281072366808464	-0.4546460804744559	0.0	1.074092113392832	-0.47338145158937006	0.0	1.0310457104624229	-0.49011568683794987	0.0	1.13363082197699	-0.4559795754207738	0.0	1.0777711267648877	-0.47686931795924276	0.0	1.0407278325040406	-0.5003320286817642	0.0
112	1.863024390243902	1.0468821703921307	-0.5383347767333011	0.0	1.0417277192064334	-0.5362489255491772	0.0	1.1115126829893545	-0.6078893751251372	0.0	1.0806822179517097	-0.6964113852503128	0.0	1.1108479838827952	-0.7106589106806748	0.0	1.1026636876905946	-0.7142773917387046	0.0	1.071273919597255	-0.7061313710789419	0.0	1.0579454642062998	-0.5367271511687983	0.0	1.119320631352434	-0.6038089763520724	0.0	1.0874341855763296	-0.6915804467849593	0.0	1.123049993777525	-0.7058997556924913	0.0	1.116175251842314	-0.7033311912852419	0.0	1.0734014966761725	-0.7008675711662912	0.0	1.1406074961855255	-0.4501714941617342	0.0	1.1935172834632504	-0.41088802834675575	0.0	1.1870324772755259	-0.4376710870268636	0.0	1.126502084635928	-0.4593613220025333	0.0	1.0773361281982041	-0.48652706793656353	0.0	1.0392917634270078	-0.5109899480527976	0.0	1.1318942334864113	-0.4597407053411915	0.0	1.08108317829371	-0.48765042022757105	0.0	1.048465869324066	-0.5167991706588171	0.0
113	1.8796585365853655	1.0469416301414596	-0.5436960410091678	0.0	1.0419821231543052	-0.5419899562205783	0.0	1.1128450843919142	-0.6128717348529521	0.0	1.0808445580799224	-0.7004761955180343	0.0	1.1108164694719667	-0.7156156781350378	0.0	1.1022566072019315	-0.7193226805488853	0.0	1.0714529230178382	-0.7095973057351944	0.0	1.057551471013573	-0.5420941287542876	0.0	1.1197609093023848	-0.6092133699673247	0.0	1.0868433135439899	-0.6959437286422303	0.0	1.122851971685975	-0.7106731934026553	0.0	1.1162548310849483	-0.7082270422242709	0.0	1.0727571970931766	-0.7043735660625607	0.0	1.1382562356388137	-0.4531532985032486	0.0	1.1891620341310778	-0.41195681236432635	0.0	1.1838161177915547	-0.4396480404468501	0.0	1.1245963806239754	-0.46393755499510847	0.0	1.0817381112877216	-0.4990602238103045	0.0	1.049873348886006	-0.5299621133533786	0.0	1.1296651753954683	-0.46336834601255444	0.0	1.085328053098599	-0.4981520614129525	0.0	1.058286608192317	-0.5320692904715988	0.0
